<svg width="82px" height="37px" viewBox="0 0 82 37" version="1.1" xmlns="http://www.w3.org/2000/svg" xmlns:xlink="http://www.w3.org/1999/xlink">
  <g id="A2" transform="translate(-477.000000, -794.000000)" fill="#383838">
    <g id="MC" transform="translate(477.000000, 794.750000)">
      <path d="M0,35.1537945 C0.177300201,34.8959033 0.378777703,34.513096 0.604432505,34.0053727 C0.830087307,33.4976494 1.00738751,32.856951 1.13633311,32.0832774 C1.31363331,30.9550034 1.51108126,29.6856951 1.72867696,28.2753526 C1.94627267,26.8650101 2.17192747,25.3861652 2.40564137,23.838818 C2.63935527,22.2914708 2.87306917,20.7078576 3.10678308,19.0879785 C3.34049698,17.4680994 3.56615178,15.8723976 3.78374748,14.3008731 C4.00134318,12.7293486 4.21087979,11.2142377 4.41235729,9.75554063 C4.61383479,8.29684352 4.79516454,6.96306246 4.95634654,5.75419745 C5.11752854,4.54533244 5.25050369,3.49361988 5.35527199,2.59905977 C5.4600403,1.70449966 5.53660175,1.03156481 5.58495635,0.580255205 L8.65547347,0.580255205 L23.8629953,29.0127602 L38.9496306,0.580255205 L41.2464741,0.580255205 L45.2115514,29.3028878 C45.3243788,30.2055071 45.4452653,30.9791807 45.5742109,31.6239087 C45.7031565,32.2686367 45.8321021,32.820685 45.9610477,33.2800537 C46.0899933,33.7394224 46.2149093,34.1182001 46.3357958,34.4163868 C46.4566823,34.7145735 46.5735393,34.9603761 46.6863667,35.1537945 L46.6863667,35.2505037 L40.593687,35.2505037 L40.593687,35.1537945 C40.674278,34.9764943 40.7508395,34.6863667 40.8233714,34.2834117 C40.8959033,33.8804567 40.9321692,33.3969107 40.9321692,32.8327737 C40.9321692,32.6232371 40.9241101,32.4096709 40.9079919,32.1920752 C40.8918737,31.9744795 40.8676964,31.7367361 40.83546,31.4788449 L37.7649429,8.31699127 L23.5003358,35.1537945 L21.8321021,34.9603761 L7.47078576,8.07521827 C6.90664876,11.8952317 6.41504365,15.4251175 5.99597045,18.6648758 C5.81867025,20.051041 5.64137005,21.4331766 5.46406985,22.8112827 C5.28676964,24.1893889 5.12961719,25.4748153 4.99261249,26.6675621 C4.85560779,27.8603089 4.74680994,28.9120215 4.66621894,29.8226998 C4.58562794,30.7333781 4.54533244,31.406313 4.54533244,31.8415044 C4.54533244,32.3895232 4.56145064,32.8730692 4.59368704,33.2921424 C4.62592344,33.7112156 4.65815984,34.065816 4.69039624,34.3559436 C4.73875084,34.6944258 4.78710544,34.9926125 4.83546004,35.2505037 L0,35.2505037 L0,35.1537945 Z" id="Path"></path>
      <path d="M80.0110014,5.89926125 L79.7934057,5.99597045 C78.5361861,4.83546004 77.0251048,3.90866353 75.2601619,3.21558093 C73.495219,2.52249832 71.5570054,2.17595702 69.4455212,2.17595702 C67.414628,2.17595702 65.5529759,2.49429147 63.8605648,3.13096038 C62.1681538,3.76762928 60.7134863,4.69039624 59.4965622,5.89926125 C58.279638,7.10812626 57.3326938,8.59100067 56.6557294,10.3478845 C55.978765,12.1047683 55.6402828,14.1034251 55.6402828,16.3438549 C55.6402828,18.8099396 55.9626468,21.1108126 56.6073748,23.2464741 C57.2521028,25.3821357 58.2111357,27.2316991 59.4844735,28.7951645 C60.7578113,30.35863 62.3494836,31.5876427 64.2594903,32.4822028 C66.169497,33.3767629 68.3978382,33.824043 70.9445138,33.824043 C71.8632512,33.824043 72.7819886,33.7273338 73.700726,33.5339154 C74.6194634,33.340497 75.5019349,33.0543989 76.3481404,32.6756212 C77.1943459,32.2968435 77.9921968,31.8374748 78.7416931,31.2975151 C79.4911894,30.7575554 80.1721834,30.1410343 80.784675,29.4479516 L81.0506253,29.6171927 L79.1164413,34.549362 C77.9075763,35.0167898 76.5737952,35.3754197 75.1150981,35.6252518 C73.656401,35.8750839 72.1856152,36 70.7027408,36 C67.7208738,36 64.9928684,35.5688381 62.5187247,34.7065144 C60.044581,33.8441907 57.9169785,32.6232371 56.1359174,31.0436535 C54.3548563,29.4640698 52.9686911,27.5661518 51.9774218,25.3498993 C50.9861525,23.1336467 50.4905178,20.6715917 50.4905178,17.963734 C50.4905178,16.432505 50.6879658,14.9254533 51.0828617,13.4425789 C51.4777576,11.9597045 52.0539832,10.549362 52.8115387,9.21155138 C53.5690941,7.87374077 54.5039497,6.64472801 55.6161055,5.5245131 C56.7282613,4.40429819 57.9975695,3.43317663 59.4240303,2.61114842 C60.850491,1.78912021 62.4220155,1.14842176 64.1386038,0.689053056 C65.8551921,0.229684352 67.7128147,0 69.7114715,0 C72.8222841,0 75.7074419,0.475486904 78.366945,1.42646071 L80.0110014,5.89926125 Z" id="Path"></path>
    </g>
  </g>
</svg>
